<svg width="20" height="20" viewBox="0 0 20 20" fill="none" xmlns="http://www.w3.org/2000/svg">
<g id="Group">
<path id="Vector" d="M19.6411 10.3984C19.6411 9.73397 19.5768 9.04814 19.4696 8.40517H10.1895V12.1987H15.5046C15.2903 13.4203 14.5831 14.4919 13.5329 15.1778L16.7049 17.6425C18.5695 15.9065 19.6411 13.3774 19.6411 10.3984Z" fill="#4280EF"/>
<path id="Vector_2" d="M10.1896 20C12.8472 20 15.0761 19.1213 16.705 17.621L13.533 15.1777C12.6543 15.7779 11.5184 16.1208 10.1896 16.1208C7.61769 16.1208 5.45303 14.3848 4.66004 12.0701L1.40234 14.5776C3.07406 17.8996 6.46035 20 10.1896 20Z" fill="#34A353"/>
<path id="Vector_3" d="M4.65994 12.0486C4.25273 10.827 4.25273 9.49821 4.65994 8.27657L1.40224 5.74757C0.00914824 8.53376 0.00914824 11.8129 1.40224 14.5776L4.65994 12.0486Z" fill="#F6B704"/>
<path id="Vector_4" d="M10.1896 4.22588C11.5827 4.20445 12.9543 4.74026 13.9616 5.70471L16.7692 2.87565C14.9904 1.20394 12.6328 0.303786 10.1896 0.325218C6.46035 0.325218 3.07406 2.42558 1.40234 5.74757L4.66004 8.27657C5.45303 5.94046 7.61769 4.22588 10.1896 4.22588Z" fill="#E54335"/>
</g>
</svg>
